<?xml version="1.0" encoding="UTF-8" standalone="no"?><!DOCTYPE svg PUBLIC "-//W3C//DTD SVG 1.1//EN" "http://www.w3.org/Graphics/SVG/1.1/DTD/svg11.dtd"><svg width="100%" height="100%" viewBox="0 0 834 374" version="1.1" xmlns="http://www.w3.org/2000/svg" xmlns:xlink="http://www.w3.org/1999/xlink" xml:space="preserve" xmlns:serif="http://www.serif.com/" style="fill-rule:evenodd;clip-rule:evenodd;"><g><path d="M374.227,126.98l293.659,0" style="fill:none;fill-rule:nonzero;stroke:#322c2e;stroke-width:3.12px;"/><path d="M133.242,241.306l-121.379,0l0,-124.294l121.344,0c-12.284,17.638 -19.489,39.059 -19.489,62.142c0,22.612 7.075,44.216 19.524,62.152Z" style="fill:#f06843;fill-rule:nonzero;"/><path d="M106.562,27.428c0,2.708 -2.663,4.918 -5.919,4.918l-49.57,0c-3.256,0 -5.916,-2.21 -5.916,-4.918l0,-9.211c0,-2.701 2.659,-4.911 5.916,-4.911l49.573,0c3.256,0 5.919,2.21 5.919,4.911l0,9.211l-0.003,0Z" style="fill:#322c2e;fill-rule:nonzero;"/><path d="M77.461,92.099c0,1.63 -1.331,2.961 -2.961,2.961l-41.43,0c-1.626,0 -2.958,-1.328 -2.958,-2.961l0,-17.757c0,-1.626 1.331,-2.958 2.958,-2.958l41.434,0c1.626,0 2.961,1.331 2.961,2.958l0,17.757l-0.004,0Z" style="fill:#322c2e;fill-rule:nonzero;"/><path d="M415.037,0.133l-37.117,41.655l-84.859,0l-7.51,-26.037c-1.641,-5.684 -7.335,-9.969 -13.247,-9.969l-99.15,0c-5.912,0 -11.606,4.286 -13.247,9.962l-7.51,26.044l-122.78,0c-16.321,0 -29.599,13.271 -29.599,29.592l0,215.558c0,16.317 13.278,29.592 29.599,29.592l103.495,0l-41.782,46.893l11.543,10.286l323.707,-363.289l-11.543,-10.286Zm-217.409,238.054c-0.548,-0.278 -1.107,-0.541 -1.644,-0.836c-31.514,-16.946 -43.32,-56.223 -26.378,-87.736c13.342,-24.808 40.517,-37.387 66.856,-33.365c-23.381,0.783 -45.73,13.605 -57.61,35.687c-16.064,29.873 -7.461,66.406 18.776,86.25Zm94.502,-100.116c-14.051,-23.683 -39.874,-39.565 -69.406,-39.558c-44.539,0 -80.647,36.112 -80.647,80.644c0,32.841 19.637,61.095 47.796,73.682l-11.434,12.832c-32.251,-16.552 -52.875,-50.068 -52.875,-86.514c0,-53.578 43.587,-97.168 97.165,-97.168c32.74,0 62.739,16.11 80.844,43.25l-11.441,12.832Zm-69.406,-67.924c-37.032,0 -69.803,18.562 -89.517,46.865c-12.284,17.638 -19.489,39.059 -19.489,62.142c0,22.609 7.075,44.216 19.524,62.152c9.485,13.686 22.103,25.229 37.085,33.46l-26.662,29.922l-114.047,0c-9.79,0 -17.754,-7.964 -17.754,-17.75l0,-215.558c0,-9.79 7.964,-17.754 17.754,-17.754l131.682,0l9.98,-34.594c0.172,-0.594 1.258,-1.412 1.876,-1.412l99.146,0c0.618,0 1.7,0.818 1.869,1.412l9.987,34.594l83.219,0l-55.696,62.507c-20.462,-28.907 -53.258,-45.986 -88.955,-45.986Z" style="fill:#322c2e;fill-rule:nonzero;"/><path d="M168.655,337.76l293.659,0" style="fill:none;fill-rule:nonzero;stroke:#322c2e;stroke-width:3.12px;"/><g><path d="M180.798,299.336l14.505,-165.387l38.667,0l14.505,165.387l-23.284,0l-2.767,-42.528l-0.158,-3.544l-6.267,-96.869l-2.725,0l-6.267,96.869l-0.158,3.544l-2.767,42.528l-23.284,0Zm21.569,-34.022l1.171,-18.429l22.199,0l1.175,18.429l-24.545,0Z" style="fill:#1a6552;fill-rule:nonzero;stroke:#fffdeb;stroke-width:8.33px;stroke-linejoin:round;stroke-miterlimit:2;"/><path d="M252.98,299.336l0,-165.387l23.284,0c7.595,0 14.189,1.654 19.78,4.962c5.592,3.308 9.825,8.072 12.7,14.294c2.875,6.222 4.313,13.585 4.313,22.091c0,13.388 -3.05,23.43 -9.149,30.124c-6.1,6.694 -15.314,10.041 -27.644,10.041l-3.785,0l0,-13.467l5.147,0c4.025,0 6.978,-2.048 8.86,-6.143c1.885,-4.095 2.827,-10.475 2.827,-19.138c0,-8.821 -0.942,-15.279 -2.827,-19.374c-1.882,-4.095 -4.835,-6.143 -8.86,-6.143l-1.362,0l0,148.139l-23.284,0Zm46.424,0c-3.744,0 -6.416,-0.945 -8.017,-2.835c-1.601,-1.89 -2.401,-4.962 -2.401,-9.214l0,-43.946c0,-4.253 -0.981,-7.324 -2.942,-9.214c-1.958,-1.89 -5.106,-2.835 -9.443,-2.835l-4.121,0l0,-13.467l10.001,0c9.591,0 16.953,2.284 22.088,6.852c5.135,4.568 7.702,11.183 7.702,19.846l0,43.001c0,2.52 0.396,4.686 1.188,6.497c0.795,1.811 1.947,2.953 3.457,3.426l0,1.89l-17.511,0Z" style="fill:#1a6552;fill-rule:nonzero;stroke:#fffdeb;stroke-width:8.33px;stroke-linejoin:round;stroke-miterlimit:2;"/><path d="M332.788,299.336l0,-146.958l-20.947,0l0,-18.429l65.183,0l0,18.429l-20.951,0l0,146.958l-23.284,0Z" style="fill:#1a6552;fill-rule:nonzero;stroke:#fffdeb;stroke-width:8.33px;stroke-linejoin:round;stroke-miterlimit:2;"/><path d="M425.943,301.699c-6.111,0 -11.457,-1.536 -16.038,-4.607c-4.578,-3.071 -8.123,-7.442 -10.635,-13.113c-2.512,-5.67 -3.768,-12.286 -3.768,-19.846c0,-3.623 0.272,-7.403 0.817,-11.341c0.545,-3.938 1.181,-7.088 1.907,-9.451l21.254,0c-0.443,2.52 -0.8,5.277 -1.073,8.269c-0.272,2.993 -0.409,5.985 -0.409,8.978c0,8.191 0.616,14.294 1.848,18.311c1.235,4.017 3.267,6.025 6.097,6.025c2.543,0 4.372,-1.575 5.488,-4.725c1.115,-3.15 1.673,-8.033 1.673,-14.649c0,-7.876 -1.418,-14.845 -4.253,-20.91c-2.833,-6.064 -7.225,-13.507 -13.177,-22.327c-4.317,-5.985 -7.842,-11.262 -10.576,-15.83c-2.73,-4.568 -5.013,-9.766 -6.846,-15.594c-1.834,-5.828 -2.75,-12.207 -2.75,-19.138c0,-8.191 1.229,-15.318 3.687,-21.382c2.461,-6.064 5.98,-10.711 10.559,-13.94c4.581,-3.229 9.98,-4.843 16.196,-4.843c6.114,0 11.46,1.536 16.038,4.607c4.581,3.071 8.128,7.442 10.64,13.113c2.512,5.67 3.768,12.286 3.768,19.846c0,3.623 -0.272,7.285 -0.817,10.986c-0.545,3.702 -1.181,6.655 -1.907,8.86l-21.254,0c0.363,-2.205 0.7,-4.765 1.009,-7.679c0.312,-2.914 0.468,-5.789 0.468,-8.624c0,-8.033 -0.636,-14.097 -1.907,-18.193c-1.272,-4.095 -3.284,-6.143 -6.037,-6.143c-2.543,0 -4.372,1.468 -5.488,4.404c-1.113,2.936 -1.669,7.485 -1.669,13.648c0,7.339 1.435,13.908 4.304,19.706c2.872,5.798 7.246,12.587 13.122,20.367c4.397,6.596 7.94,12.243 10.631,16.941c2.694,4.698 4.957,10.098 6.791,16.199c1.836,6.099 2.755,12.776 2.755,20.031c0,8.572 -1.23,16.032 -3.691,22.379c-2.458,6.347 -5.978,11.212 -10.559,14.593c-4.578,3.379 -9.977,5.069 -16.196,5.069Z" style="fill:#1a6552;fill-rule:nonzero;stroke:#fffdeb;stroke-width:8.33px;stroke-linejoin:round;stroke-miterlimit:2;"/><path d="M463.626,299.336l0,-165.387l23.284,0l0,72.77l14.084,0l0,-72.77l23.284,0l0,165.387l-23.284,0l0,-74.188l-14.084,0l0,74.188l-23.284,0Z" style="fill:#1a6552;fill-rule:nonzero;stroke:#fffdeb;stroke-width:8.33px;stroke-linejoin:round;stroke-miterlimit:2;"/><path d="M566.48,301.699c-7.879,0 -14.26,-2.953 -19.142,-8.86c-4.879,-5.907 -8.511,-15.042 -10.895,-27.407c-2.381,-12.365 -3.572,-28.628 -3.572,-48.789c0,-20.161 1.191,-36.424 3.572,-48.789c2.384,-12.365 6.016,-21.5 10.895,-27.407c4.882,-5.907 11.263,-8.86 19.142,-8.86c7.882,0 14.263,2.953 19.142,8.86c4.879,5.907 8.509,15.042 10.891,27.407c2.384,12.365 3.576,28.628 3.576,48.789c0,20.161 -1.192,36.424 -3.576,48.789c-2.381,12.365 -6.012,21.5 -10.891,27.407c-4.879,5.907 -11.26,8.86 -19.142,8.86Zm0,-16.775c3.165,0 5.338,-5.198 6.518,-15.594c1.181,-10.396 1.771,-27.958 1.771,-52.688c0,-24.729 -0.59,-42.292 -1.771,-52.688c-1.181,-10.396 -3.354,-15.594 -6.518,-15.594c-3.165,0 -5.338,5.198 -6.518,15.594c-1.181,10.396 -1.771,27.958 -1.771,52.688c0,24.729 0.59,42.292 1.771,52.688c1.181,10.396 3.354,15.594 6.518,15.594Z" style="fill:#1a6552;fill-rule:nonzero;stroke:#fffdeb;stroke-width:8.33px;stroke-linejoin:round;stroke-miterlimit:2;"/><path d="M608.596,299.336l0,-165.387l23.629,0c7.777,0 14.318,1.93 19.623,5.789c5.308,3.859 9.307,9.608 11.998,17.247c2.694,7.639 4.04,17.208 4.04,28.706c0,17.011 -3.019,29.888 -9.056,38.63c-6.034,8.742 -14.903,13.113 -26.605,13.113l-4.245,0l0,-17.247l5.262,0c3.71,0 6.453,-2.835 8.23,-8.506c1.78,-5.67 2.669,-14.334 2.669,-25.989c0,-11.656 -0.89,-20.319 -2.669,-25.989c-1.777,-5.67 -4.52,-8.506 -8.23,-8.506l-1.362,0l0,148.139l-23.284,0Z" style="fill:#1a6552;fill-rule:nonzero;stroke:#fffdeb;stroke-width:8.33px;stroke-linejoin:round;stroke-miterlimit:2;"/></g><g transform="matrix(1,0,0,0.867093,0,-162.961129)"><g transform="matrix(272.481647,0,0,272.481647,178.860941,533.157942)"><path d="M0.007,-0l0.053,-0.7l0.142,0l0.053,0.7l-0.085,-0l-0.01,-0.18l-0.001,-0.015l-0.023,-0.41l-0.01,0l-0.023,0.41l-0.001,0.015l-0.01,0.18l-0.085,-0Zm0.079,-0.144l0.004,-0.078l0.081,0l0.004,0.078l-0.09,0Z" style="fill:#1a6552;fill-rule:nonzero;"/></g><g transform="matrix(272.481647,0,0,272.481647,244.805933,533.157942)"><path d="M0.03,-0l0,-0.7l0.085,0c0.028,0 0.052,0.007 0.073,0.021c0.021,0.014 0.036,0.034 0.047,0.06c0.011,0.026 0.016,0.058 0.016,0.094c0,0.057 -0.011,0.099 -0.034,0.128c-0.022,0.028 -0.056,0.043 -0.101,0.043l-0.014,0l0,-0.057l0.019,0c0.015,-0 0.026,-0.009 0.033,-0.026c0.007,-0.017 0.01,-0.044 0.01,-0.081c0,-0.037 -0.003,-0.065 -0.01,-0.082c-0.007,-0.017 -0.018,-0.026 -0.033,-0.026l-0.005,0l0,0.627l-0.085,-0Zm0.17,-0c-0.014,-0 -0.024,-0.004 -0.029,-0.012c-0.006,-0.008 -0.009,-0.021 -0.009,-0.039l0,-0.186c0,-0.018 -0.004,-0.031 -0.011,-0.039c-0.007,-0.008 -0.019,-0.012 -0.035,-0.012l-0.015,0l0,-0.057l0.037,0c0.035,0 0.062,0.01 0.081,0.029c0.019,0.019 0.028,0.047 0.028,0.084l0,0.182c-0,0.011 0.001,0.02 0.004,0.028c0.003,0.008 0.007,0.012 0.013,0.014l0,0.008l-0.064,-0Z" style="fill:#1a6552;fill-rule:nonzero;"/></g><g transform="matrix(272.481647,0,0,272.481647,310.478443,533.157942)"><path d="M0.082,-0l0,-0.622l-0.077,0l-0,-0.078l0.239,0l0,0.078l-0.077,0l0,0.622l-0.085,-0Z" style="fill:#1a6552;fill-rule:nonzero;"/></g><g transform="matrix(272.481647,0,0,272.481647,365.251687,533.157942)"></g><g transform="matrix(272.481647,0,0,272.481647,390.05195,533.157942)"><path d="M0.132,0.01c-0.022,0 -0.042,-0.007 -0.059,-0.019c-0.017,-0.013 -0.03,-0.032 -0.039,-0.056c-0.009,-0.024 -0.014,-0.052 -0.014,-0.084c0,-0.015 0.001,-0.031 0.003,-0.048c0.002,-0.017 0.004,-0.03 0.007,-0.04l0.078,0c-0.002,0.011 -0.003,0.022 -0.004,0.035c-0.001,0.013 -0.002,0.025 -0.002,0.038c0,0.035 0.002,0.061 0.007,0.077c0.005,0.017 0.012,0.026 0.022,0.026c0.009,0 0.016,-0.007 0.02,-0.02c0.004,-0.013 0.006,-0.034 0.006,-0.062c0,-0.033 -0.005,-0.063 -0.016,-0.088c-0.01,-0.026 -0.027,-0.057 -0.048,-0.095c-0.016,-0.025 -0.029,-0.048 -0.039,-0.067c-0.01,-0.019 -0.018,-0.041 -0.025,-0.066c-0.007,-0.025 -0.01,-0.052 -0.01,-0.081c0,-0.035 0.005,-0.065 0.014,-0.091c0.009,-0.026 0.022,-0.045 0.039,-0.059c0.017,-0.014 0.037,-0.02 0.059,-0.02c0.022,0 0.042,0.006 0.059,0.019c0.017,0.013 0.03,0.031 0.039,0.055c0.009,0.024 0.014,0.052 0.014,0.084c-0,0.015 -0.001,0.031 -0.003,0.046c-0.002,0.016 -0.004,0.028 -0.007,0.038l-0.078,0c0.001,-0.009 0.003,-0.02 0.004,-0.032c0.001,-0.012 0.002,-0.025 0.002,-0.037c0,-0.034 -0.002,-0.06 -0.007,-0.077c-0.005,-0.017 -0.012,-0.026 -0.022,-0.026c-0.009,0 -0.016,0.006 -0.02,0.019c-0.004,0.012 -0.006,0.032 -0.006,0.058c-0,0.031 0.005,0.059 0.016,0.083c0.011,0.025 0.027,0.053 0.048,0.086c0.016,0.028 0.029,0.052 0.039,0.072c0.01,0.02 0.018,0.043 0.025,0.069c0.007,0.026 0.01,0.054 0.01,0.085c-0,0.036 -0.005,0.068 -0.014,0.095c-0.009,0.027 -0.022,0.047 -0.039,0.062c-0.017,0.014 -0.037,0.021 -0.059,0.021Z" style="fill:#1a6552;fill-rule:nonzero;"/></g><g transform="matrix(272.481647,0,0,272.481647,455.451978,533.157942)"><path d="M0.03,-0l0,-0.7l0.085,0l0,0.308l0.052,0l0,-0.308l0.085,0l0,0.7l-0.085,-0l0,-0.314l-0.052,0l0,0.314l-0.085,-0Z" style="fill:#1a6552;fill-rule:nonzero;"/></g><g transform="matrix(272.481647,0,0,272.481647,526.846603,533.157942)"><path d="M0.145,0.01c-0.029,0 -0.052,-0.013 -0.07,-0.037c-0.018,-0.025 -0.031,-0.064 -0.04,-0.116c-0.009,-0.052 -0.013,-0.121 -0.013,-0.207c0,-0.085 0.004,-0.154 0.013,-0.206c0.009,-0.052 0.022,-0.091 0.04,-0.116c0.018,-0.025 0.041,-0.037 0.07,-0.037c0.029,0 0.052,0.013 0.07,0.037c0.018,0.025 0.031,0.064 0.04,0.116c0.009,0.052 0.013,0.121 0.013,0.206c0,0.085 -0.004,0.154 -0.013,0.207c-0.009,0.052 -0.022,0.091 -0.04,0.116c-0.018,0.025 -0.041,0.037 -0.07,0.037Zm0,-0.071c0.012,0 0.02,-0.022 0.024,-0.066c0.004,-0.044 0.007,-0.118 0.007,-0.223c0,-0.105 -0.002,-0.179 -0.007,-0.223c-0.004,-0.044 -0.012,-0.066 -0.024,-0.066c-0.012,0 -0.02,0.022 -0.024,0.066c-0.004,0.044 -0.007,0.118 -0.007,0.223c-0,0.105 0.002,0.179 0.007,0.223c0.004,0.044 0.012,0.066 0.024,0.066Z" style="fill:#1a6552;fill-rule:nonzero;"/></g><g transform="matrix(272.481647,0,0,272.481647,600.42108,533.157942)"><path d="M0.03,-0l0,-0.7l0.087,0c0.029,0 0.053,0.008 0.072,0.025c0.019,0.016 0.034,0.041 0.044,0.073c0.01,0.032 0.015,0.073 0.015,0.122c-0,0.072 -0.011,0.127 -0.033,0.163c-0.022,0.037 -0.055,0.055 -0.098,0.055l-0.016,0l0,-0.073l0.019,0c0.014,0 0.024,-0.012 0.03,-0.036c0.007,-0.024 0.01,-0.061 0.01,-0.11c0,-0.049 -0.003,-0.086 -0.01,-0.11c-0.007,-0.024 -0.017,-0.036 -0.03,-0.036l-0.005,0l0,0.627l-0.085,-0Z" style="fill:#1a6552;fill-rule:nonzero;"/></g><g transform="matrix(272.481647,0,0,272.481647,672.628717,533.157942)"></g></g><g><g><g transform="matrix(29.166743,0,0,29.166743,394.08877,103.725103)"><path d="M-0.05,-0l0.46,-0.7l0.073,0l0.18,0.7l-0.074,-0l-0.164,-0.658l0.03,0l-0.426,0.658l-0.08,-0Zm0.163,-0.187l0.034,-0.06l0.407,0l0.011,0.06l-0.452,0Z" style="fill:#322c2e;fill-rule:nonzero;"/></g><g transform="matrix(29.166743,0,0,29.166743,415.063051,103.725103)"><path d="M0.408,-0.53c0.047,0 0.086,0.009 0.116,0.028c0.03,0.019 0.051,0.045 0.063,0.08c0.012,0.035 0.013,0.076 0.003,0.123l-0.06,0.299l-0.071,-0l0.06,-0.3c0.01,-0.052 0.005,-0.093 -0.017,-0.122c-0.022,-0.03 -0.06,-0.044 -0.114,-0.044c-0.056,0 -0.102,0.015 -0.14,0.046c-0.037,0.031 -0.062,0.077 -0.075,0.138l-0.056,0.282l-0.071,-0l0.105,-0.525l0.068,0l-0.03,0.151l-0.015,-0.026c0.025,-0.045 0.058,-0.078 0.098,-0.099c0.04,-0.021 0.085,-0.031 0.136,-0.031Z" style="fill:#322c2e;fill-rule:nonzero;"/></g><g transform="matrix(29.166743,0,0,29.166743,434.841497,103.725103)"><path d="M0.214,0.005c-0.03,0 -0.056,-0.006 -0.077,-0.019c-0.021,-0.013 -0.036,-0.031 -0.044,-0.056c-0.008,-0.024 -0.01,-0.053 -0.003,-0.086l0.097,-0.485l0.071,0l-0.096,0.482c-0.006,0.033 -0.004,0.058 0.008,0.076c0.012,0.018 0.033,0.027 0.065,0.027c0.014,0 0.028,-0.002 0.042,-0.007c0.014,-0.005 0.027,-0.011 0.038,-0.02l0.017,0.053c-0.017,0.013 -0.035,0.022 -0.056,0.027c-0.021,0.005 -0.041,0.008 -0.061,0.008Zm-0.156,-0.471l0.011,-0.059l0.324,0l-0.011,0.059l-0.324,0Z" style="fill:#322c2e;fill-rule:nonzero;"/></g><g transform="matrix(29.166743,0,0,29.166743,446.774088,103.725103)"><path d="M0.047,-0l0.105,-0.525l0.071,0l-0.105,0.525l-0.071,-0Zm0.17,-0.641c-0.014,0 -0.026,-0.005 -0.035,-0.014c-0.009,-0.009 -0.014,-0.02 -0.014,-0.033c0,-0.015 0.005,-0.028 0.016,-0.038c0.01,-0.011 0.024,-0.016 0.04,-0.016c0.014,0 0.026,0.004 0.035,0.013c0.009,0.009 0.014,0.02 0.014,0.032c0,0.016 -0.005,0.029 -0.016,0.04c-0.01,0.01 -0.024,0.016 -0.04,0.016Z" style="fill:#322c2e;fill-rule:nonzero;"/></g><g transform="matrix(29.166743,0,0,29.166743,454.681669,103.725103)"><path d="M0.271,0.005c-0.045,0 -0.084,-0.009 -0.119,-0.027c-0.035,-0.018 -0.062,-0.043 -0.081,-0.077c-0.02,-0.033 -0.029,-0.073 -0.029,-0.119c0,-0.045 0.007,-0.087 0.022,-0.125c0.015,-0.038 0.035,-0.071 0.062,-0.099c0.027,-0.028 0.058,-0.05 0.094,-0.065c0.036,-0.015 0.076,-0.023 0.119,-0.023c0.046,0 0.085,0.008 0.117,0.024c0.032,0.016 0.057,0.04 0.074,0.071c0.017,0.031 0.026,0.069 0.026,0.113c0,0.063 -0.011,0.12 -0.035,0.169c-0.023,0.049 -0.056,0.088 -0.099,0.116c-0.043,0.028 -0.093,0.042 -0.151,0.042Zm0.015,-0.063c0.044,0 0.083,-0.011 0.117,-0.032c0.034,-0.021 0.061,-0.05 0.081,-0.088c0.02,-0.037 0.03,-0.08 0.03,-0.127c0,-0.052 -0.015,-0.092 -0.045,-0.12c-0.03,-0.029 -0.073,-0.043 -0.128,-0.043c-0.043,0 -0.082,0.011 -0.117,0.032c-0.034,0.021 -0.062,0.05 -0.081,0.087c-0.02,0.037 -0.03,0.079 -0.03,0.127c0,0.051 0.015,0.091 0.045,0.12c0.03,0.029 0.073,0.043 0.128,0.043Zm0.131,0.252l0.069,-0.346l0.032,-0.105l0.011,-0.101l0.033,-0.167l0.068,0l-0.144,0.72l-0.071,-0Z" style="fill:#322c2e;fill-rule:nonzero;"/></g><g transform="matrix(29.166743,0,0,29.166743,474.518447,103.725103)"><path d="M0.267,0.005c-0.046,0 -0.084,-0.009 -0.114,-0.028c-0.03,-0.019 -0.051,-0.045 -0.063,-0.08c-0.012,-0.035 -0.013,-0.076 -0.004,-0.123l0.06,-0.299l0.071,0l-0.06,0.3c-0.01,0.052 -0.005,0.093 0.017,0.122c0.021,0.03 0.059,0.044 0.112,0.044c0.055,0 0.101,-0.015 0.138,-0.046c0.037,-0.031 0.062,-0.077 0.074,-0.138l0.056,-0.282l0.071,0l-0.105,0.525l-0.068,-0l0.03,-0.151l0.015,0.026c-0.025,0.045 -0.058,0.078 -0.098,0.099c-0.04,0.021 -0.085,0.031 -0.134,0.031Z" style="fill:#322c2e;fill-rule:nonzero;"/></g><g transform="matrix(29.166743,0,0,29.166743,494.180225,103.725103)"><path d="M0.287,0.005c-0.05,0 -0.094,-0.009 -0.131,-0.027c-0.037,-0.018 -0.065,-0.044 -0.085,-0.077c-0.02,-0.033 -0.03,-0.073 -0.03,-0.119c0,-0.06 0.013,-0.113 0.038,-0.16c0.025,-0.047 0.06,-0.084 0.104,-0.111c0.044,-0.027 0.094,-0.041 0.149,-0.041c0.047,0 0.087,0.009 0.121,0.027c0.034,0.018 0.06,0.043 0.079,0.077c0.019,0.033 0.028,0.073 0.028,0.12c0,0.011 -0.001,0.022 -0.002,0.033c-0.001,0.011 -0.003,0.021 -0.005,0.031l-0.461,0l0.009,-0.053l0.418,0l-0.029,0.02c0.006,-0.042 0.004,-0.077 -0.009,-0.106c-0.012,-0.029 -0.032,-0.05 -0.058,-0.065c-0.026,-0.015 -0.058,-0.022 -0.095,-0.022c-0.043,0 -0.081,0.01 -0.114,0.031c-0.033,0.021 -0.059,0.05 -0.078,0.087c-0.019,0.037 -0.028,0.08 -0.028,0.129c0,0.053 0.015,0.093 0.045,0.122c0.03,0.028 0.076,0.043 0.136,0.043c0.035,0 0.068,-0.006 0.098,-0.018c0.03,-0.012 0.055,-0.028 0.074,-0.049l0.031,0.051c-0.024,0.025 -0.055,0.044 -0.092,0.057c-0.037,0.014 -0.076,0.02 -0.118,0.02Z" style="fill:#322c2e;fill-rule:nonzero;"/></g><g transform="matrix(29.166743,0,0,29.166743,511.858665,103.725103)"><path d="M0.2,0.005c-0.043,0 -0.083,-0.006 -0.121,-0.018c-0.038,-0.012 -0.068,-0.027 -0.088,-0.045l0.034,-0.056c0.02,0.018 0.046,0.032 0.079,0.042c0.033,0.011 0.067,0.016 0.103,0.016c0.05,0 0.089,-0.008 0.116,-0.025c0.027,-0.017 0.04,-0.04 0.04,-0.069c0,-0.02 -0.007,-0.035 -0.021,-0.046c-0.014,-0.01 -0.033,-0.018 -0.055,-0.024c-0.023,-0.006 -0.047,-0.011 -0.072,-0.016c-0.026,-0.005 -0.05,-0.012 -0.072,-0.021c-0.023,-0.009 -0.041,-0.021 -0.055,-0.039c-0.014,-0.017 -0.021,-0.04 -0.021,-0.07c0,-0.033 0.009,-0.062 0.028,-0.087c0.019,-0.025 0.045,-0.044 0.08,-0.057c0.034,-0.013 0.074,-0.02 0.12,-0.02c0.034,0 0.067,0.004 0.099,0.013c0.033,0.009 0.059,0.021 0.079,0.036l-0.03,0.056c-0.021,-0.016 -0.045,-0.027 -0.072,-0.034c-0.027,-0.007 -0.055,-0.011 -0.082,-0.011c-0.048,0 -0.085,0.009 -0.112,0.026c-0.026,0.018 -0.04,0.041 -0.04,0.069c0,0.02 0.007,0.035 0.021,0.046c0.014,0.011 0.033,0.019 0.055,0.025c0.023,0.006 0.047,0.011 0.072,0.016c0.026,0.005 0.05,0.012 0.072,0.021c0.023,0.009 0.041,0.021 0.055,0.038c0.014,0.016 0.021,0.039 0.021,0.068c0,0.035 -0.01,0.064 -0.029,0.089c-0.019,0.024 -0.047,0.043 -0.081,0.056c-0.035,0.013 -0.076,0.019 -0.122,0.019Z" style="fill:#322c2e;fill-rule:nonzero;"/></g><g transform="matrix(29.166743,0,0,29.166743,526.153762,103.725103)"><path d="M-0.026,0.146l0.081,-0.185l0.007,0.044c-0.014,-0 -0.026,-0.005 -0.036,-0.015c-0.01,-0.01 -0.015,-0.022 -0.015,-0.037c0,-0.017 0.006,-0.031 0.017,-0.041c0.011,-0.011 0.024,-0.016 0.039,-0.016c0.015,0 0.027,0.005 0.036,0.015c0.01,0.01 0.015,0.022 0.015,0.037c-0,0.009 -0.001,0.017 -0.004,0.025c-0.003,0.008 -0.008,0.017 -0.014,0.028l-0.076,0.145l-0.048,0Z" style="fill:#322c2e;fill-rule:nonzero;"/></g><g transform="matrix(29.166743,0,0,29.166743,532.398839,103.725103)"></g><g transform="matrix(29.166743,0,0,29.166743,540.102252,103.725103)"><path d="M0.062,-0l0.14,-0.7l0.251,0c0.079,0 0.141,0.017 0.184,0.052c0.044,0.035 0.065,0.084 0.065,0.146c0,0.06 -0.013,0.11 -0.039,0.152c-0.026,0.042 -0.064,0.074 -0.112,0.095c-0.049,0.022 -0.106,0.033 -0.173,0.033l-0.231,0l0.039,-0.035l-0.052,0.256l-0.073,-0Zm0.123,-0.25l-0.026,-0.036l0.22,0c0.079,0 0.141,-0.018 0.184,-0.053c0.044,-0.035 0.066,-0.088 0.066,-0.157c0,-0.046 -0.016,-0.081 -0.047,-0.105c-0.031,-0.024 -0.076,-0.036 -0.135,-0.036l-0.217,0l0.039,-0.037l-0.085,0.423Z" style="fill:#322c2e;fill-rule:nonzero;"/></g><g transform="matrix(29.166743,0,0,29.166743,560.726533,103.725103)"><path d="M0.271,0.005c-0.045,0 -0.084,-0.009 -0.119,-0.027c-0.035,-0.018 -0.062,-0.043 -0.081,-0.077c-0.02,-0.033 -0.029,-0.073 -0.029,-0.119c0,-0.045 0.007,-0.087 0.022,-0.125c0.015,-0.038 0.035,-0.071 0.062,-0.099c0.027,-0.028 0.058,-0.05 0.094,-0.065c0.036,-0.015 0.076,-0.023 0.119,-0.023c0.046,0 0.085,0.008 0.117,0.024c0.032,0.016 0.057,0.04 0.074,0.071c0.017,0.031 0.026,0.069 0.026,0.113c0,0.063 -0.011,0.12 -0.035,0.169c-0.023,0.049 -0.056,0.088 -0.099,0.116c-0.043,0.028 -0.093,0.042 -0.151,0.042Zm0.015,-0.063c0.044,0 0.083,-0.011 0.117,-0.032c0.034,-0.021 0.061,-0.05 0.081,-0.088c0.02,-0.037 0.03,-0.08 0.03,-0.127c0,-0.052 -0.015,-0.092 -0.045,-0.12c-0.03,-0.029 -0.073,-0.043 -0.128,-0.043c-0.043,0 -0.082,0.011 -0.117,0.032c-0.034,0.021 -0.062,0.05 -0.081,0.087c-0.02,0.037 -0.03,0.079 -0.03,0.127c0,0.051 0.015,0.091 0.045,0.12c0.03,0.029 0.073,0.043 0.128,0.043Zm0.173,0.058l0.03,-0.151l0.03,-0.106l0.01,-0.11l0.032,-0.159l0.071,0l-0.105,0.525l-0.068,-0Z" style="fill:#322c2e;fill-rule:nonzero;"/></g><g transform="matrix(29.166743,0,0,29.166743,580.563312,103.725103)"><path d="M0.047,-0l0.105,-0.525l0.071,0l-0.105,0.525l-0.071,-0Zm0.17,-0.641c-0.014,0 -0.026,-0.005 -0.035,-0.014c-0.009,-0.009 -0.014,-0.02 -0.014,-0.033c0,-0.015 0.005,-0.028 0.016,-0.038c0.01,-0.011 0.024,-0.016 0.04,-0.016c0.014,0 0.026,0.004 0.035,0.013c0.009,0.009 0.014,0.02 0.014,0.032c0,0.016 -0.005,0.029 -0.016,0.04c-0.01,0.01 -0.024,0.016 -0.04,0.016Z" style="fill:#322c2e;fill-rule:nonzero;"/></g><g transform="matrix(29.166743,0,0,29.166743,588.470892,103.725103)"><path d="M0.408,-0.53c0.047,0 0.086,0.009 0.116,0.028c0.03,0.019 0.051,0.045 0.063,0.08c0.012,0.035 0.013,0.076 0.003,0.123l-0.06,0.299l-0.071,-0l0.06,-0.3c0.01,-0.052 0.005,-0.093 -0.017,-0.122c-0.022,-0.03 -0.06,-0.044 -0.114,-0.044c-0.056,0 -0.102,0.015 -0.14,0.046c-0.037,0.031 -0.062,0.077 -0.075,0.138l-0.056,0.282l-0.071,-0l0.105,-0.525l0.068,0l-0.03,0.151l-0.015,-0.026c0.025,-0.045 0.058,-0.078 0.098,-0.099c0.04,-0.021 0.085,-0.031 0.136,-0.031Z" style="fill:#322c2e;fill-rule:nonzero;"/></g><g transform="matrix(29.166743,0,0,29.166743,608.249338,103.725103)"><path d="M0.214,0.005c-0.03,0 -0.056,-0.006 -0.077,-0.019c-0.021,-0.013 -0.036,-0.031 -0.044,-0.056c-0.008,-0.024 -0.01,-0.053 -0.003,-0.086l0.097,-0.485l0.071,0l-0.096,0.482c-0.006,0.033 -0.004,0.058 0.008,0.076c0.012,0.018 0.033,0.027 0.065,0.027c0.014,0 0.028,-0.002 0.042,-0.007c0.014,-0.005 0.027,-0.011 0.038,-0.02l0.017,0.053c-0.017,0.013 -0.035,0.022 -0.056,0.027c-0.021,0.005 -0.041,0.008 -0.061,0.008Zm-0.156,-0.471l0.011,-0.059l0.324,0l-0.011,0.059l-0.324,0Z" style="fill:#322c2e;fill-rule:nonzero;"/></g><g transform="matrix(29.166743,0,0,29.166743,620.181929,103.725103)"><path d="M0.047,-0l0.105,-0.525l0.071,0l-0.105,0.525l-0.071,-0Zm0.17,-0.641c-0.014,0 -0.026,-0.005 -0.035,-0.014c-0.009,-0.009 -0.014,-0.02 -0.014,-0.033c0,-0.015 0.005,-0.028 0.016,-0.038c0.01,-0.011 0.024,-0.016 0.04,-0.016c0.014,0 0.026,0.004 0.035,0.013c0.009,0.009 0.014,0.02 0.014,0.032c0,0.016 -0.005,0.029 -0.016,0.04c-0.01,0.01 -0.024,0.016 -0.04,0.016Z" style="fill:#322c2e;fill-rule:nonzero;"/></g><g transform="matrix(29.166743,0,0,29.166743,628.08951,103.725103)"><path d="M0.408,-0.53c0.047,0 0.086,0.009 0.116,0.028c0.03,0.019 0.051,0.045 0.063,0.08c0.012,0.035 0.013,0.076 0.003,0.123l-0.06,0.299l-0.071,-0l0.06,-0.3c0.01,-0.052 0.005,-0.093 -0.017,-0.122c-0.022,-0.03 -0.06,-0.044 -0.114,-0.044c-0.056,0 -0.102,0.015 -0.14,0.046c-0.037,0.031 -0.062,0.077 -0.075,0.138l-0.056,0.282l-0.071,-0l0.105,-0.525l0.068,0l-0.03,0.151l-0.015,-0.026c0.025,-0.045 0.058,-0.078 0.098,-0.099c0.04,-0.021 0.085,-0.031 0.136,-0.031Z" style="fill:#322c2e;fill-rule:nonzero;"/></g><g transform="matrix(29.166743,0,0,29.166743,647.867955,103.725103)"><path d="M0.241,0.199c-0.049,0 -0.093,-0.007 -0.133,-0.02c-0.04,-0.014 -0.073,-0.033 -0.1,-0.058l0.042,-0.054c0.021,0.022 0.049,0.039 0.083,0.051c0.034,0.012 0.072,0.019 0.114,0.019c0.067,0 0.118,-0.015 0.155,-0.046c0.037,-0.031 0.061,-0.078 0.073,-0.142l0.027,-0.138l0.028,-0.086l0.01,-0.091l0.031,-0.159l0.068,0l-0.092,0.462c-0.018,0.093 -0.052,0.159 -0.102,0.201c-0.05,0.041 -0.118,0.062 -0.204,0.062Zm0.035,-0.219c-0.046,-0 -0.087,-0.009 -0.122,-0.026c-0.035,-0.017 -0.062,-0.041 -0.081,-0.073c-0.019,-0.032 -0.029,-0.069 -0.029,-0.113c0,-0.043 0.007,-0.082 0.022,-0.118c0.015,-0.036 0.035,-0.068 0.062,-0.095c0.027,-0.027 0.058,-0.048 0.095,-0.063c0.037,-0.015 0.077,-0.022 0.121,-0.022c0.042,0 0.079,0.007 0.112,0.022c0.033,0.015 0.059,0.037 0.078,0.066c0.019,0.029 0.029,0.067 0.029,0.112c0,0.058 -0.011,0.11 -0.035,0.157c-0.023,0.047 -0.056,0.084 -0.099,0.112c-0.043,0.028 -0.093,0.041 -0.152,0.041Zm0.013,-0.063c0.044,0 0.084,-0.01 0.118,-0.03c0.034,-0.02 0.061,-0.047 0.081,-0.082c0.02,-0.035 0.03,-0.075 0.03,-0.119c0,-0.048 -0.015,-0.086 -0.046,-0.112c-0.031,-0.027 -0.073,-0.04 -0.128,-0.04c-0.044,0 -0.083,0.01 -0.118,0.03c-0.034,0.02 -0.062,0.047 -0.081,0.082c-0.02,0.035 -0.03,0.075 -0.03,0.12c0,0.048 0.015,0.086 0.046,0.112c0.031,0.027 0.073,0.04 0.128,0.04Z" style="fill:#322c2e;fill-rule:nonzero;"/></g><g transform="matrix(29.166743,0,0,29.166743,667.908901,103.725103)"><path d="M0.2,0.005c-0.043,0 -0.083,-0.006 -0.121,-0.018c-0.038,-0.012 -0.068,-0.027 -0.088,-0.045l0.034,-0.056c0.02,0.018 0.046,0.032 0.079,0.042c0.033,0.011 0.067,0.016 0.103,0.016c0.05,0 0.089,-0.008 0.116,-0.025c0.027,-0.017 0.04,-0.04 0.04,-0.069c0,-0.02 -0.007,-0.035 -0.021,-0.046c-0.014,-0.01 -0.033,-0.018 -0.055,-0.024c-0.023,-0.006 -0.047,-0.011 -0.072,-0.016c-0.026,-0.005 -0.05,-0.012 -0.072,-0.021c-0.023,-0.009 -0.041,-0.021 -0.055,-0.039c-0.014,-0.017 -0.021,-0.04 -0.021,-0.07c0,-0.033 0.009,-0.062 0.028,-0.087c0.019,-0.025 0.045,-0.044 0.08,-0.057c0.034,-0.013 0.074,-0.02 0.12,-0.02c0.034,0 0.067,0.004 0.099,0.013c0.033,0.009 0.059,0.021 0.079,0.036l-0.03,0.056c-0.021,-0.016 -0.045,-0.027 -0.072,-0.034c-0.027,-0.007 -0.055,-0.011 -0.082,-0.011c-0.048,0 -0.085,0.009 -0.112,0.026c-0.026,0.018 -0.04,0.041 -0.04,0.069c0,0.02 0.007,0.035 0.021,0.046c0.014,0.011 0.033,0.019 0.055,0.025c0.023,0.006 0.047,0.011 0.072,0.016c0.026,0.005 0.05,0.012 0.072,0.021c0.023,0.009 0.041,0.021 0.055,0.038c0.014,0.016 0.021,0.039 0.021,0.068c0,0.035 -0.01,0.064 -0.029,0.089c-0.019,0.024 -0.047,0.043 -0.081,0.056c-0.035,0.013 -0.076,0.019 -0.122,0.019Z" style="fill:#322c2e;fill-rule:nonzero;"/></g><g transform="matrix(29.166743,0,0,29.166743,682.203998,103.725103)"><path d="M-0.026,0.146l0.081,-0.185l0.007,0.044c-0.014,-0 -0.026,-0.005 -0.036,-0.015c-0.01,-0.01 -0.015,-0.022 -0.015,-0.037c0,-0.017 0.006,-0.031 0.017,-0.041c0.011,-0.011 0.024,-0.016 0.039,-0.016c0.015,0 0.027,0.005 0.036,0.015c0.01,0.01 0.015,0.022 0.015,0.037c-0,0.009 -0.001,0.017 -0.004,0.025c-0.003,0.008 -0.008,0.017 -0.014,0.028l-0.076,0.145l-0.048,0Z" style="fill:#322c2e;fill-rule:nonzero;"/></g><g transform="matrix(29.166743,0,0,29.166743,688.449074,103.725103)"></g><g transform="matrix(29.166743,0,0,29.166743,689.310208,103.725103)"><path d="M0.271,0.005c-0.045,0 -0.084,-0.009 -0.119,-0.027c-0.035,-0.018 -0.062,-0.043 -0.081,-0.077c-0.02,-0.033 -0.029,-0.073 -0.029,-0.119c0,-0.045 0.007,-0.087 0.022,-0.125c0.015,-0.038 0.035,-0.071 0.062,-0.099c0.027,-0.028 0.058,-0.05 0.094,-0.065c0.036,-0.015 0.076,-0.023 0.119,-0.023c0.046,0 0.085,0.008 0.117,0.024c0.032,0.016 0.057,0.04 0.074,0.071c0.017,0.031 0.026,0.069 0.026,0.113c0,0.063 -0.011,0.12 -0.035,0.169c-0.023,0.049 -0.056,0.088 -0.099,0.116c-0.043,0.028 -0.093,0.042 -0.151,0.042Zm0.015,-0.063c0.044,0 0.083,-0.011 0.117,-0.032c0.034,-0.021 0.061,-0.05 0.081,-0.088c0.02,-0.037 0.03,-0.08 0.03,-0.127c0,-0.052 -0.015,-0.092 -0.045,-0.12c-0.03,-0.029 -0.073,-0.043 -0.128,-0.043c-0.043,0 -0.082,0.011 -0.117,0.032c-0.034,0.021 -0.062,0.05 -0.081,0.087c-0.02,0.037 -0.03,0.079 -0.03,0.127c0,0.051 0.015,0.091 0.045,0.12c0.03,0.029 0.073,0.043 0.128,0.043Zm0.173,0.058l0.03,-0.151l0.03,-0.106l0.01,-0.11l0.032,-0.159l0.071,0l-0.105,0.525l-0.068,-0Z" style="fill:#322c2e;fill-rule:nonzero;"/></g><g transform="matrix(29.166743,0,0,29.166743,709.146986,103.725103)"><path d="M0.408,-0.53c0.047,0 0.086,0.009 0.116,0.028c0.03,0.019 0.051,0.045 0.063,0.08c0.012,0.035 0.013,0.076 0.003,0.123l-0.06,0.299l-0.071,-0l0.06,-0.3c0.01,-0.052 0.005,-0.093 -0.017,-0.122c-0.022,-0.03 -0.06,-0.044 -0.114,-0.044c-0.056,0 -0.102,0.015 -0.14,0.046c-0.037,0.031 -0.062,0.077 -0.075,0.138l-0.056,0.282l-0.071,-0l0.105,-0.525l0.068,0l-0.03,0.151l-0.015,-0.026c0.025,-0.045 0.058,-0.078 0.098,-0.099c0.04,-0.021 0.085,-0.031 0.136,-0.031Z" style="fill:#322c2e;fill-rule:nonzero;"/></g><g transform="matrix(29.166743,0,0,29.166743,728.925431,103.725103)"><path d="M0.271,0.005c-0.045,0 -0.084,-0.009 -0.119,-0.027c-0.035,-0.018 -0.062,-0.043 -0.081,-0.077c-0.02,-0.033 -0.029,-0.073 -0.029,-0.119c0,-0.045 0.007,-0.087 0.022,-0.125c0.015,-0.038 0.035,-0.071 0.062,-0.099c0.027,-0.028 0.058,-0.05 0.094,-0.065c0.036,-0.015 0.076,-0.023 0.119,-0.023c0.046,0 0.085,0.008 0.117,0.024c0.032,0.016 0.057,0.04 0.074,0.071c0.017,0.031 0.026,0.069 0.026,0.113c0,0.048 -0.007,0.092 -0.02,0.132c-0.013,0.04 -0.032,0.075 -0.057,0.104c-0.025,0.029 -0.055,0.052 -0.09,0.068c-0.035,0.016 -0.074,0.024 -0.118,0.024Zm0.015,-0.063c0.044,0 0.083,-0.011 0.117,-0.032c0.034,-0.021 0.061,-0.05 0.081,-0.088c0.02,-0.037 0.03,-0.08 0.03,-0.127c0,-0.052 -0.015,-0.092 -0.045,-0.12c-0.03,-0.029 -0.073,-0.043 -0.128,-0.043c-0.043,0 -0.082,0.011 -0.117,0.032c-0.034,0.021 -0.062,0.05 -0.081,0.087c-0.02,0.037 -0.03,0.079 -0.03,0.127c0,0.051 0.015,0.091 0.045,0.12c0.03,0.029 0.073,0.043 0.128,0.043Zm0.173,0.058l0.03,-0.151l0.029,-0.106l0.01,-0.11l0.075,-0.375l0.071,0l-0.148,0.742l-0.068,-0Z" style="fill:#322c2e;fill-rule:nonzero;"/></g><g transform="matrix(29.166743,0,0,29.166743,748.76221,103.725103)"></g><g transform="matrix(29.166743,0,0,29.166743,756.465623,103.725103)"><path d="M0.795,-0.53c0.047,0 0.086,0.009 0.116,0.028c0.03,0.019 0.05,0.045 0.062,0.08c0.011,0.035 0.012,0.076 0.002,0.123l-0.06,0.299l-0.071,-0l0.06,-0.3c0.01,-0.052 0.005,-0.093 -0.015,-0.122c-0.02,-0.03 -0.057,-0.044 -0.11,-0.044c-0.053,0 -0.097,0.015 -0.132,0.044c-0.036,0.029 -0.059,0.074 -0.072,0.133l-0.058,0.29l-0.071,-0l0.06,-0.3c0.01,-0.052 0.006,-0.093 -0.015,-0.122c-0.02,-0.03 -0.057,-0.044 -0.11,-0.044c-0.054,0 -0.098,0.015 -0.134,0.046c-0.036,0.031 -0.06,0.077 -0.072,0.138l-0.056,0.282l-0.071,-0l0.105,-0.525l0.068,0l-0.03,0.151l-0.015,-0.026c0.025,-0.045 0.057,-0.078 0.096,-0.099c0.039,-0.021 0.082,-0.031 0.131,-0.031c0.037,0 0.068,0.006 0.095,0.019c0.026,0.012 0.047,0.03 0.062,0.054c0.015,0.024 0.023,0.052 0.025,0.085l-0.037,-0.008c0.026,-0.05 0.061,-0.088 0.104,-0.112c0.043,-0.025 0.092,-0.037 0.146,-0.037Z" style="fill:#322c2e;fill-rule:nonzero;"/></g><g transform="matrix(29.166743,0,0,29.166743,787.473265,103.725103)"><path d="M0.281,0.005c-0.048,0 -0.091,-0.009 -0.126,-0.027c-0.036,-0.018 -0.064,-0.044 -0.083,-0.078c-0.02,-0.033 -0.03,-0.073 -0.03,-0.117c0,-0.06 0.013,-0.113 0.039,-0.16c0.026,-0.047 0.062,-0.084 0.108,-0.111c0.046,-0.027 0.098,-0.041 0.157,-0.041c0.049,0 0.091,0.009 0.127,0.027c0.036,0.018 0.063,0.044 0.083,0.077c0.02,0.033 0.03,0.073 0.03,0.118c0,0.06 -0.013,0.113 -0.039,0.16c-0.026,0.047 -0.062,0.084 -0.108,0.112c-0.046,0.027 -0.098,0.041 -0.157,0.041Zm0.005,-0.063c0.044,0 0.083,-0.011 0.117,-0.032c0.034,-0.021 0.061,-0.05 0.081,-0.088c0.02,-0.037 0.03,-0.08 0.03,-0.127c0,-0.052 -0.015,-0.092 -0.045,-0.12c-0.03,-0.029 -0.073,-0.043 -0.128,-0.043c-0.043,0 -0.082,0.011 -0.117,0.032c-0.034,0.021 -0.062,0.05 -0.081,0.087c-0.02,0.037 -0.03,0.079 -0.03,0.127c0,0.051 0.015,0.091 0.045,0.12c0.03,0.029 0.073,0.043 0.128,0.043Z" style="fill:#322c2e;fill-rule:nonzero;"/></g><g transform="matrix(29.166743,0,0,29.166743,805.822539,103.725103)"><path d="M0.047,-0l0.105,-0.525l0.068,0l-0.031,0.155l-0.008,-0.027c0.024,-0.046 0.055,-0.08 0.093,-0.101c0.038,-0.021 0.086,-0.032 0.144,-0.032l-0.013,0.069c-0.003,-0 -0.006,-0.001 -0.01,-0.001c-0.003,-0 -0.007,-0 -0.01,-0c-0.056,-0 -0.102,0.016 -0.139,0.048c-0.037,0.032 -0.061,0.081 -0.074,0.147l-0.053,0.267l-0.071,-0Z" style="fill:#322c2e;fill-rule:nonzero;"/></g><g transform="matrix(29.166743,0,0,29.166743,817.200962,103.725103)"><path d="M0.287,0.005c-0.05,0 -0.094,-0.009 -0.131,-0.027c-0.037,-0.018 -0.065,-0.044 -0.085,-0.077c-0.02,-0.033 -0.03,-0.073 -0.03,-0.119c0,-0.06 0.013,-0.113 0.038,-0.16c0.025,-0.047 0.06,-0.084 0.104,-0.111c0.044,-0.027 0.094,-0.041 0.149,-0.041c0.047,0 0.087,0.009 0.121,0.027c0.034,0.018 0.06,0.043 0.079,0.077c0.019,0.033 0.028,0.073 0.028,0.12c0,0.011 -0.001,0.022 -0.002,0.033c-0.001,0.011 -0.003,0.021 -0.005,0.031l-0.461,0l0.009,-0.053l0.418,0l-0.029,0.02c0.006,-0.042 0.004,-0.077 -0.009,-0.106c-0.012,-0.029 -0.032,-0.05 -0.058,-0.065c-0.026,-0.015 -0.058,-0.022 -0.095,-0.022c-0.043,0 -0.081,0.01 -0.114,0.031c-0.033,0.021 -0.059,0.05 -0.078,0.087c-0.019,0.037 -0.028,0.08 -0.028,0.129c0,0.053 0.015,0.093 0.045,0.122c0.03,0.028 0.076,0.043 0.136,0.043c0.035,0 0.068,-0.006 0.098,-0.018c0.03,-0.012 0.055,-0.028 0.074,-0.049l0.031,0.051c-0.024,0.025 -0.055,0.044 -0.092,0.057c-0.037,0.014 -0.076,0.02 -0.118,0.02Z" style="fill:#322c2e;fill-rule:nonzero;"/></g></g></g><rect x="0" y="0" width="426.59" height="373.881" style="fill-opacity:0;"/><rect x="374.227" y="125.418" width="293.659" height="3.125" style="fill-opacity:0;"/><rect x="168.655" y="336.198" width="293.659" height="3.125" style="fill-opacity:0;"/></g></svg>